<?xml version="1.0" encoding="iso-8859-1"?>
<!-- Uploaded to: SVG Repo, www.svgrepo.com, Generator: SVG Repo Mixer Tools -->
<svg height="800px" width="800px" version="1.1" id="Layer_1" xmlns="http://www.w3.org/2000/svg" xmlns:xlink="http://www.w3.org/1999/xlink" 
	 viewBox="0 0 512 512" xml:space="preserve">
<path style="fill:#ECEDEF;" d="M106.324,8.017c-9.446,0-17.102,7.656-17.102,17.102v461.762c0,9.446,7.656,17.102,17.102,17.102
	h376.251c9.446,0,17.102-7.656,17.102-17.102V84.977l-76.96-76.96H106.324z"/>
<path style="fill:#D9DCDF;" d="M439.819,84.977h59.858l-76.96-76.96v59.858C422.716,77.319,430.373,84.977,439.819,84.977z"/>
<path style="fill:#C6CACF;" d="M397.063,196.142H89.222V42.221h307.841c4.722,0,8.551,3.829,8.551,8.551v136.818
	C405.614,192.313,401.785,196.142,397.063,196.142z"/>
<polygon style="fill:#FFC44F;" points="388.512,179.04 12.261,179.04 80.67,110.63 12.261,42.221 388.512,42.221 "/>
<g>
	<polygon style="fill:#A1A7AF;" points="320.103,264.551 268.796,264.551 277.347,221.795 311.551,221.795 	"/>
	<polygon style="fill:#A1A7AF;" points="258.17,268.953 221.89,305.232 197.704,268.953 221.89,244.766 	"/>
	<polygon style="fill:#A1A7AF;" points="217.489,315.858 217.489,367.165 174.733,358.614 174.733,324.409 	"/>
	<polygon style="fill:#A1A7AF;" points="221.89,377.791 258.17,414.07 221.89,438.257 197.704,414.07 	"/>
	<polygon style="fill:#A1A7AF;" points="268.796,418.472 320.103,418.472 311.551,461.228 277.347,461.228 	"/>
	<polygon style="fill:#A1A7AF;" points="330.728,414.07 367.008,377.791 391.195,414.07 367.008,438.257 	"/>
	<polygon style="fill:#A1A7AF;" points="371.409,367.165 371.409,315.858 414.165,324.409 414.165,358.614 	"/>
	<polygon style="fill:#A1A7AF;" points="367.008,305.232 330.728,268.953 367.008,244.766 391.195,268.953 	"/>
</g>
<path style="fill:#7B848F;" d="M294.449,256c-47.227,0-85.511,38.285-85.511,85.511s38.285,85.512,85.511,85.512
	s85.511-38.285,85.511-85.512S341.676,256,294.449,256z M294.449,384.267c-23.613,0-42.756-19.143-42.756-42.756
	c0-23.613,19.143-42.756,42.756-42.756c23.613,0,42.756,19.143,42.756,42.756C337.205,365.124,318.062,384.267,294.449,384.267z"/>
<path style="fill:#A1A7AF;" d="M294.449,281.653c-33.059,0-59.858,26.799-59.858,59.858s26.799,59.858,59.858,59.858
	s59.858-26.799,59.858-59.858S327.508,281.653,294.449,281.653z M294.449,384.267c-23.613,0-42.756-19.143-42.756-42.756
	c0-23.613,19.143-42.756,42.756-42.756c23.613,0,42.756,19.143,42.756,42.756C337.205,365.124,318.062,384.267,294.449,384.267z"/>
<path d="M499.677,426.489c4.428,0,8.017-3.589,8.017-8.017V84.977c0-2.1-0.862-4.183-2.347-5.668l-76.96-76.96
	C426.899,0.863,424.818,0,422.716,0H106.324C92.473,0,81.205,11.268,81.205,25.119v9.086H12.261c-6.987,0-10.616,8.738-5.668,13.685
	l62.74,62.741l-62.74,62.741c-4.947,4.947-1.32,13.685,5.668,13.685h68.944v299.825c0,13.851,11.268,25.119,25.119,25.119h376.251
	c13.851,0,25.119-11.268,25.119-25.119v-34.205c0-4.427-3.588-8.017-8.017-8.017c-4.428,0-8.017,3.589-8.017,8.017v34.205
	c0,5.01-4.076,9.086-9.086,9.086H106.324c-5.01,0-9.086-4.076-9.086-9.086V187.056h51.841c4.427,0,8.017-3.589,8.017-8.017
	s-3.589-8.017-8.017-8.017H31.615l54.724-54.724c3.131-3.131,3.131-8.207,0-11.337L31.615,50.238h348.88v120.785H183.284
	c-4.427,0-8.017,3.589-8.017,8.017s3.589,8.017,8.017,8.017h205.228c4.428,0,8.017-3.589,8.017-8.017V42.221
	c0-4.427-3.588-8.017-8.017-8.017H97.238v-9.086c0-5.01,4.076-9.086,9.086-9.086H414.7v51.841c0,13.851,11.268,25.119,25.119,25.119
	h51.841v325.478C491.66,422.9,495.248,426.489,499.677,426.489z M439.819,76.96c-5.01,0-9.086-4.076-9.086-9.086V27.37l49.589,49.59
	H439.819z"/>
<path d="M174.733,144.301h34.205c4.427,0,8.017-3.589,8.017-8.017v-34.205c0-13.851-11.268-25.119-25.119-25.119h-17.102
	c-4.427,0-8.017,3.589-8.017,8.017v51.307C166.716,140.711,170.306,144.301,174.733,144.301z M182.75,92.994h9.086
	c5.01,0,9.086,4.076,9.086,9.086v26.188H182.75V92.994z"/>
<path d="M234.591,76.96c-4.427,0-8.017,3.589-8.017,8.017v51.307c0,4.427,3.589,8.017,8.017,8.017h25.653
	c4.428,0,8.017-3.589,8.017-8.017c0-4.427-3.588-8.017-8.017-8.017h-17.637v-43.29C242.608,80.55,239.018,76.96,234.591,76.96z"/>
<path d="M285.898,76.96c-4.428,0-8.017,3.589-8.017,8.017v51.307c0,4.427,3.588,8.017,8.017,8.017h25.653
	c4.428,0,8.017-3.589,8.017-8.017c0-4.427-3.588-8.017-8.017-8.017h-17.637v-43.29C293.915,80.55,290.325,76.96,285.898,76.96z"/>
<path d="M415.737,366.474c3.748-0.749,6.444-4.039,6.444-7.861v-34.205c0-3.821-2.697-7.111-6.444-7.861l-33.265-6.653
	c-1.015-2.818-2.162-5.572-3.433-8.258l18.825-28.238c2.12-3.18,1.701-7.414-1.002-10.115l-24.187-24.186
	c-2.703-2.702-6.937-3.12-10.116-1.002l-28.238,18.825c-2.685-1.271-5.44-2.418-8.257-3.433l-6.653-33.265
	c-0.749-3.748-4.039-6.444-7.861-6.444h-34.205c-3.821,0-7.111,2.697-7.861,6.444l-6.653,33.265
	c-2.818,1.015-5.572,2.162-8.257,3.433l-28.238-18.825c-3.179-2.119-7.414-1.701-10.115,1.002l-24.186,24.186
	c-2.702,2.702-3.121,6.936-1.002,10.115l18.825,28.238c-1.271,2.685-2.418,5.44-3.433,8.257l-33.267,6.654
	c-3.748,0.749-6.444,4.039-6.444,7.861v34.205c0,3.821,2.697,7.111,6.444,7.861l33.265,6.653c1.015,2.818,2.162,5.572,3.433,8.257
	l-18.825,28.238c-2.12,3.18-1.701,7.414,1.002,10.115l24.186,24.186c2.669,2.669,6.972,3.098,10.115,1.002l28.238-18.825
	c2.685,1.271,5.44,2.418,8.257,3.433l6.653,33.265c0.749,3.748,4.039,6.444,7.861,6.444h34.205c3.821,0,7.111-2.697,7.861-6.444
	l6.653-33.265c2.818-1.015,5.572-2.162,8.257-3.433l28.238,18.825c3.143,2.096,7.446,1.667,10.116-1.002l24.187-24.186
	c2.701-2.702,3.121-6.936,1.002-10.115l-18.825-28.238c1.271-2.685,2.418-5.44,3.433-8.257L415.737,366.474z M406.148,330.981v21.06
	l-19.277,3.855c1.475-9.514,1.475-19.256,0-28.771L406.148,330.981z M294.449,419.006c-42.731,0-77.495-34.764-77.495-77.495
	s34.764-77.495,77.495-77.495s77.495,34.764,77.495,77.495S337.179,419.006,294.449,419.006z M365.987,255.082l14.892,14.892
	l-10.933,16.399c-5.7-7.785-12.573-14.658-20.358-20.358L365.987,255.082z M283.918,229.812h21.06l3.855,19.277
	c-9.515-1.475-19.256-1.475-28.771,0L283.918,229.812z M208.019,269.974l14.892-14.892l16.399,10.933
	c-7.785,5.7-14.658,12.574-20.358,20.358L208.019,269.974z M182.75,352.042v-21.06l19.278-3.855c-1.475,9.515-1.475,19.256,0,28.771
	L182.75,352.042z M222.911,427.941l-14.892-14.892l10.933-16.399c5.7,7.785,12.574,14.658,20.358,20.358L222.911,427.941z
	 M304.979,453.211h-21.06l-3.855-19.277c9.515,1.475,19.256,1.475,28.771,0L304.979,453.211z M380.878,413.049l-14.892,14.892
	l-16.399-10.933c7.785-5.7,14.658-12.573,20.358-20.358L380.878,413.049z"/>
<path d="M294.449,290.739c-27.995,0-50.772,22.777-50.772,50.772c0,27.995,22.777,50.772,50.772,50.772
	c27.995,0,50.772-22.777,50.772-50.772C345.222,313.516,322.444,290.739,294.449,290.739z M294.449,376.251
	c-19.156,0-34.739-15.584-34.739-34.739c0-19.155,15.583-34.739,34.739-34.739s34.739,15.584,34.739,34.739
	C329.188,360.666,313.605,376.251,294.449,376.251z"/>
</svg>